<mxfile host="65bd71144e">
    <diagram name="Page-1" id="LOe-q4Zma8nKyUy3JgGF">
        <mxGraphModel dx="1302" dy="1442" grid="0" gridSize="10" guides="1" tooltips="1" connect="1" arrows="1" fold="1" page="1" pageScale="1" pageWidth="850" pageHeight="1100" math="0" shadow="0">
            <root>
                <mxCell id="0"/>
                <mxCell id="1" parent="0"/>
                <mxCell id="8" value="" style="edgeStyle=orthogonalEdgeStyle;endArrow=block;html=1;strokeColor=#FFFFFF;movable=0;resizable=0;rotatable=0;deletable=0;editable=0;connectable=0;" parent="1" edge="1">
                    <mxGeometry relative="1" as="geometry">
                        <mxPoint x="190" y="40.0526315789474" as="sourcePoint"/>
                    </mxGeometry>
                </mxCell>
                <mxCell id="26" value="chat_log&lt;br&gt;thread_id" style="edgeStyle=none;html=1;" parent="1" source="24" target="25" edge="1">
                    <mxGeometry relative="1" as="geometry"/>
                </mxCell>
                <mxCell id="24" value="Frontend" style="whiteSpace=wrap;html=1;" parent="1" vertex="1">
                    <mxGeometry x="-656" y="156" width="120" height="120" as="geometry"/>
                </mxCell>
                <mxCell id="25" value="message_assistant()" style="whiteSpace=wrap;html=1;" parent="1" vertex="1">
                    <mxGeometry x="-252" y="165" width="150" height="120" as="geometry"/>
                </mxCell>
                <mxCell id="27" value="OpenAI call" style="whiteSpace=wrap;html=1;" parent="1" vertex="1">
                    <mxGeometry x="540" y="-90" width="120" height="60" as="geometry"/>
                </mxCell>
                <mxCell id="42" value="&lt;div style=&quot;color: rgb(204, 204, 204); background-color: rgb(31, 31, 31); font-family: Menlo, Monaco, &amp;quot;Courier New&amp;quot;, monospace; font-weight: normal; font-size: 12px; line-height: 18px;&quot;&gt;&lt;div&gt;&lt;span style=&quot;color: #cccccc;&quot;&gt;response,&lt;/span&gt;&lt;/div&gt;&lt;div&gt;&lt;span style=&quot;color: #cccccc;&quot;&gt;&amp;nbsp;script_ready,&lt;/span&gt;&lt;/div&gt;&lt;div&gt;&lt;span style=&quot;color: #cccccc;&quot;&gt;&amp;nbsp;ask_for_uploads,&lt;/span&gt;&lt;/div&gt;&lt;div&gt;&lt;span style=&quot;color: #cccccc;&quot;&gt;thread_id&lt;/span&gt;&lt;/div&gt;&lt;/div&gt;" style="edgeStyle=none;html=1;exitX=0;exitY=1;exitDx=0;exitDy=0;" parent="1" source="25" edge="1">
                    <mxGeometry relative="1" as="geometry">
                        <mxPoint x="-100" y="279" as="sourcePoint"/>
                        <mxPoint x="-535" y="268" as="targetPoint"/>
                    </mxGeometry>
                </mxCell>
                <mxCell id="45" value="script_ready:true" style="edgeStyle=none;html=1;" edge="1" parent="1" source="43" target="44">
                    <mxGeometry relative="1" as="geometry"/>
                </mxCell>
                <mxCell id="43" value="ChatSection" style="text;html=1;align=center;verticalAlign=middle;resizable=0;points=[];autosize=1;strokeColor=none;fillColor=none;" vertex="1" parent="1">
                    <mxGeometry x="-696" y="506" width="83" height="26" as="geometry"/>
                </mxCell>
                <mxCell id="44" value="build payload" style="text;html=1;align=center;verticalAlign=middle;resizable=0;points=[];autosize=1;strokeColor=none;fillColor=none;" vertex="1" parent="1">
                    <mxGeometry x="-415" y="506" width="89" height="26" as="geometry"/>
                </mxCell>
            </root>
        </mxGraphModel>
    </diagram>
</mxfile>